<svg xmlns="http://www.w3.org/2000/svg" viewBox="0 10.079999923706055 63.209999084472656 41.19000244140625" data-asc="1.0087890625" width="63.209999084472656" height="41.19000244140625"><defs/><g fill="#000000"><g transform="translate(0, 0)"><path d="M10.28 10.91L10.28 50.44L0 50.44L0 10.91L10.28 10.91ZM36.18 22.88L26.64 22.88L26.64 19.95Q26.64 17.90 26.27 17.33Q25.90 16.77 25.05 16.77Q24.12 16.77 23.65 17.53Q23.17 18.29 23.17 19.82Q23.17 21.80 23.71 22.80Q24.22 23.80 26.61 25.22Q33.47 29.30 35.25 31.91Q37.04 34.52 37.04 40.33Q37.04 44.56 36.05 46.56Q35.06 48.56 32.23 49.91Q29.39 51.27 25.63 51.27Q21.51 51.27 18.59 49.71Q15.67 48.14 14.77 45.73Q13.87 43.31 13.87 38.87L13.87 36.28L23.41 36.28L23.41 41.09Q23.41 43.31 23.82 43.95Q24.22 44.58 25.24 44.58Q26.27 44.58 26.77 43.77Q27.27 42.97 27.27 41.38Q27.27 37.89 26.32 36.82Q25.34 35.74 21.51 33.23Q17.68 30.69 16.43 29.54Q15.19 28.39 14.37 26.37Q13.55 24.34 13.55 21.19Q13.55 16.65 14.71 14.55Q15.87 12.45 18.46 11.27Q21.04 10.08 24.71 10.08Q28.71 10.08 31.53 11.38Q34.35 12.67 35.27 14.64Q36.18 16.60 36.18 21.31L36.18 22.88ZM40.26 10.91L47.53 10.91Q54.81 10.91 57.39 11.47Q59.96 12.04 61.58 14.34Q63.21 16.65 63.21 21.70Q63.21 26.32 62.06 27.91Q60.91 29.49 57.54 29.81Q60.60 30.57 61.65 31.84Q62.70 33.11 62.95 34.17Q63.21 35.23 63.21 40.01L63.21 50.44L53.66 50.44L53.66 37.30Q53.66 34.13 53.16 33.37Q52.66 32.62 50.54 32.62L50.54 50.44L40.26 50.44L40.26 10.91M50.54 17.68L50.54 26.46Q52.27 26.46 52.97 25.99Q53.66 25.51 53.66 22.90L53.66 20.73Q53.66 18.85 52.99 18.26Q52.32 17.68 50.54 17.68Z"/></g></g></svg>